<svg xmlns="http://www.w3.org/2000/svg" width="179.685" height="68.483" viewBox="0 0 179.685 68.483">
  <g id="Grupo_1" data-name="Grupo 1" transform="translate(617.72 378)">
    <path id="Caminho_2" data-name="Caminho 2" d="M274.261,43.01V75.217c0,11.09-8.088,18.917-19.371,18.917a21.213,21.213,0,0,1-17.09-8.479l8.153-5.935a10.074,10.074,0,0,0,8.674,4.885c4.762,0,8.088-3.2,8.479-9.067A12.588,12.588,0,0,1,254.17,78.8a17.8,17.8,0,0,1-18.13-18.07A18.02,18.02,0,0,1,253.976,42.35a15.609,15.609,0,0,1,9.132,2.739V43.01Zm-10.7,17.732a8.336,8.336,0,0,0-8.352-8.414,8.414,8.414,0,0,0,0,16.827,8.379,8.379,0,0,0,8.352-8.414Z" transform="translate(-853.76 -403.651)" fill="#333"/>
    <path id="Caminho_3" data-name="Caminho 3" d="M456.28,60.742A18.69,18.69,0,1,1,475,79.136,18.324,18.324,0,0,1,456.28,60.742Zm26.547,0a7.924,7.924,0,0,0-15.848,0A7.923,7.923,0,0,0,475,68.7,7.84,7.84,0,0,0,482.827,60.742Z" transform="translate(-1034.15 -403.651)" fill="#333"/>
    <path id="Caminho_4" data-name="Caminho 4" d="M674.36-49.94h11.025V2.894H674.36Z" transform="translate(-1212.771 -328.06)" fill="#333"/>
    <path id="Caminho_5" data-name="Caminho 5" d="M755.11-34.013a6.25,6.25,0,0,1,6.262-6.188,6.208,6.208,0,0,1,4.417,1.793,6.208,6.208,0,0,1,1.844,4.4,6.208,6.208,0,0,1-1.841,4.4,6.208,6.208,0,0,1-4.42,1.8,6.25,6.25,0,0,1-6.262-6.2Zm.783,9.409h10.958V10.878H755.893Z" transform="translate(-1278.911 -336.037)" fill="#333"/>
    <path id="Caminho_6" data-name="Caminho 6" d="M843.78,43.01H854.8V45.22a10.576,10.576,0,0,1,7.5-2.87,13.257,13.257,0,0,1,13.109,13.57V78.483H864.326V56.952a4.436,4.436,0,0,0-4.63-4.567,4.648,4.648,0,0,0-4.885,4.567V78.483H843.78Z" transform="translate(-1351.537 -403.651)" fill="#333"/>
    <path id="Caminho_7" data-name="Caminho 7" d="M1062.3,60.367v.065l-.13,3.065H1036.6a7.689,7.689,0,0,0,7.7,6.128,8.144,8.144,0,0,0,6.783-3.327L1061,68.835c-2.739,6.391-9.065,10.239-16.632,10.239-10.827,0-18.915-7.892-18.915-18.392,0-10.436,8.088-18.392,18.655-18.392C1054.541,42.3,1062.171,49.866,1062.3,60.367Zm-25.241-4.044h13.762a6.721,6.721,0,0,0-6.653-4.7A7.263,7.263,0,0,0,1037.061,56.324Z" transform="translate(-1500.336 -403.602)" fill="#333"/>
  </g>
</svg>
