<svg xmlns="http://www.w3.org/2000/svg" xmlns:xlink="http://www.w3.org/1999/xlink" width="237.99" height="90.705" viewBox="0 0 237.99 90.705">
  <defs>
    <linearGradient id="linear-gradient" x1="0.5" y1="1" x2="0.5" gradientUnits="objectBoundingBox">
      <stop offset="0" stop-color="#3a6de1"/>
      <stop offset="1" stop-color="#7243ea"/>
    </linearGradient>
  </defs>
  <g id="Grupo_1" data-name="Grupo 1" transform="translate(617.72 378)">
    <path id="Caminho_2" data-name="Caminho 2" d="M286.663,43.225V85.882c0,14.688-10.712,25.055-25.657,25.055-8.984,0-17.71-4.314-22.635-11.23l10.8-7.86a13.342,13.342,0,0,0,11.489,6.471c6.308,0,10.712-4.235,11.23-12.009a16.673,16.673,0,0,1-11.836,4.314A23.581,23.581,0,0,1,236.04,66.689c0-13.557,10.458-24.339,23.756-24.339a20.674,20.674,0,0,1,12.1,3.628V43.225ZM272.5,66.71a11.041,11.041,0,0,0-11.062-11.144,11.144,11.144,0,0,0,0,22.287A11.1,11.1,0,0,0,272.5,66.71Z" transform="translate(-853.76 -398.233)" fill="url(#linear-gradient)"/>
    <path id="Caminho_3" data-name="Caminho 3" d="M456.28,66.71c0-13.734,10.887-24.36,24.794-24.36a24.364,24.364,0,1,1,0,48.723C467.167,91.073,456.28,80.445,456.28,66.71Zm35.161,0a10.5,10.5,0,0,0-20.991,0,10.494,10.494,0,0,0,10.624,10.545A10.385,10.385,0,0,0,491.441,66.71Z" transform="translate(-1021.22 -398.233)" fill="url(#linear-gradient)"/>
    <path id="Caminho_4" data-name="Caminho 4" d="M674.36-49.94h14.6V20.037h-14.6Z" transform="translate(-1187.037 -328.06)" fill="url(#linear-gradient)"/>
    <path id="Caminho_5" data-name="Caminho 5" d="M755.11-32a8.278,8.278,0,0,1,8.294-8.2,8.222,8.222,0,0,1,5.85,2.374A8.223,8.223,0,0,1,771.7-32a8.223,8.223,0,0,1-2.438,5.829A8.222,8.222,0,0,1,763.4-23.8,8.278,8.278,0,0,1,755.11-32Zm1.038,12.462h14.513v47H756.148Z" transform="translate(-1248.436 -335.465)" fill="url(#linear-gradient)"/>
    <path id="Caminho_6" data-name="Caminho 6" d="M843.78,43.225h14.6v2.926a14.007,14.007,0,0,1,9.936-3.8c9.675,0,17.363,7.947,17.363,17.974V90.208H870.992V61.69a5.875,5.875,0,0,0-6.133-6.049,6.157,6.157,0,0,0-6.471,6.049V90.208H843.78Z" transform="translate(-1315.856 -398.233)" fill="url(#linear-gradient)"/>
    <path id="Caminho_7" data-name="Caminho 7" d="M1074.259,66.233v.086l-.173,4.06h-33.862c1.294,5,5.095,8.117,10.192,8.117a10.786,10.786,0,0,0,8.984-4.407l13.13,3.36c-3.628,8.464-12.006,13.562-22.028,13.562-14.341,0-25.053-10.453-25.053-24.36,0-13.823,10.712-24.36,24.708-24.36C1063.981,42.3,1074.087,52.324,1074.259,66.233Zm-33.431-5.356h18.228c-1.555-4.057-4.58-6.231-8.812-6.231A9.619,9.619,0,0,0,1040.828,60.877Z" transform="translate(-1453.989 -398.187)" fill="url(#linear-gradient)"/>
  </g>
</svg>
