<svg xmlns="http://www.w3.org/2000/svg" width="563.502" height="478.148" viewBox="0 0 563.502 478.148">
  <g id="Grupo_56" data-name="Grupo 56" transform="translate(-745 -127.823)">
    <path id="Caminho_8" data-name="Caminho 8" d="M693.53,290.71V423.46c0,108.214-87.724,195.934-195.933,195.928H137V486.638A196.107,196.107,0,0,1,261.745,304.046a192.367,192.367,0,0,1,19.088-6.329c.126-.042.258-.078.385-.108q2.867-.784,5.77-1.478c.108-.03.21-.054.319-.078a195.994,195.994,0,0,1,36.343-5.127c1.448-.066,2.9-.12,4.357-.15.523-.018,1.052-.03,1.587-.03q1.659-.036,3.335-.036Z" transform="translate(608 -36.56)" fill="#3f3d56"/>
    <g id="Grupo_3" data-name="Grupo 3" transform="translate(944.362 568.872)" opacity="0.07">
      <ellipse id="Elipse_1" data-name="Elipse 1" cx="66.779" cy="18.55" rx="66.779" ry="18.55"/>
    </g>
    <circle id="Elipse_5" data-name="Elipse 5" cx="4.207" cy="4.207" r="4.207" transform="translate(838.839 336.51)" fill="#f2f2f2"/>
    <circle id="Elipse_6" data-name="Elipse 6" cx="4.207" cy="4.207" r="4.207" transform="translate(1201.836 476.132)" fill="#f2f2f2"/>
    <circle id="Elipse_7" data-name="Elipse 7" cx="4.207" cy="4.207" r="4.207" transform="translate(959.363 344.485)" fill="#f2f2f2"/>
    <circle id="Elipse_8" data-name="Elipse 8" cx="2.404" cy="2.404" r="2.404" transform="translate(1195.961 317.467)" fill="#ff6584"/>
    <circle id="Elipse_9" data-name="Elipse 9" cx="2.404" cy="2.404" r="2.404" transform="translate(833.555 437.668)" fill="#ff6584"/>
    <path id="Caminho_12" data-name="Caminho 12" d="M92.4,609.095h-1.1V608H91.1v1.095H90v.214h1.1v1.1h.214v-1.1h1.1Z" transform="translate(680.495 -118.345)" fill="#f2f2f2"/>
    <path id="Caminho_13" data-name="Caminho 13" d="M677.4,461.1h-1.095V460h-.214v1.1H675v.214h1.095v1.1h.214v-1.1H677.4Z" transform="translate(474.083 -59.294)" fill="#f2f2f2"/>
    <path id="Caminho_14" data-name="Caminho 14" d="M828.4,431.1h-1.095V430h-.214v1.1H826v.214h1.095V432.4h.214v-1.095H828.4Z" transform="translate(413.835 -47.324)" fill="#f2f2f2"/>
    <path id="Caminho_15" data-name="Caminho 15" d="M503.4,511.1h-1.1V510h-.214v1.1H501v.214h1.095v1.1h.214v-1.1h1.1Z" transform="translate(533.964 -75.665)" fill="#f2f2f2"/>
    <path id="Caminho_16" data-name="Caminho 16" d="M784.4,521.1h-1.1V520H783.1v1.1H782v.214h1.1v1.1h.214v-1.1h1.1Z" transform="translate(431.39 -83.234)" fill="#f2f2f2"/>
    <path id="Caminho_17" data-name="Caminho 17" d="M445.4,564.1h-1.1V563h-.214v1.1H443v.214h1.095v1.1h.214v-1.1h1.1Z" transform="translate(557.106 -96.811)" fill="#f2f2f2"/>
    <path id="Caminho_18" data-name="Caminho 18" d="M573.4,566.1h-1.1V565h-.214V566.1H571v.214h1.095v1.1h.214v-1.1h1.1Z" transform="translate(515.578 -101.189)" fill="#f2f2f2"/>
    <path id="Caminho_19" data-name="Caminho 19" d="M94.4,396.1h-1.1V395H93.1v1.1H92v.214h1.1v1.1h.214v-1.1h1.1Z" transform="translate(679.697 -33.359)" fill="#f2f2f2"/>
    <path id="Caminho_20" data-name="Caminho 20" d="M479.4,380.095h-1.1V379h-.214v1.095H477v.214h1.095v1.1h.214v-1.1h1.1Z" transform="translate(543.54 -23.396)" fill="#f2f2f2"/>
    <path id="Caminho_21" data-name="Caminho 21" d="M643.4,324.1h-1.1V323H642.1V324.1H641v.214h1.1v1.1h.214v-1.1h1.1Z" transform="translate(487.648 -4.632)" fill="#f2f2f2"/>
    <path id="Caminho_22" data-name="Caminho 22" d="M625.4,341.095h-1.1V340H624.1v1.095H623v.214h1.1v1.1h.214v-1.1h1.1Z" transform="translate(494.83 -11.415)" fill="#f2f2f2"/>
    <circle id="Elipse_10" data-name="Elipse 10" cx="2.404" cy="2.404" r="2.404" transform="translate(1065.615 303.016)" fill="#f2f2f2"/>
    <path id="Caminho_24" data-name="Caminho 24" d="M945.212,290.71h-1.2a71.589,71.589,0,0,0,71.514,71.243v-1.2A70.391,70.391,0,0,1,945.212,290.71Z" transform="matrix(-0.966, -0.259, 0.259, -0.966, 2098.689, 880.059)" fill="#fff"/>
    <path id="Caminho_25" data-name="Caminho 25" d="M907.2,290.71H906a94.464,94.464,0,0,0,94.358,94.081v-1.2A93.259,93.259,0,0,1,907.2,290.71Z" transform="matrix(-0.966, -0.259, 0.259, -0.966, 2084.04, 876.134)" fill="#fff"/>
    <path id="Caminho_26" data-name="Caminho 26" d="M603.987,64.92s-15.443-13.846-36.211,12.248-53.252,38.874-60.707,48.992c0,0,30.886-12.78,41.536-18.106s10.118-4.26,10.118-4.26-14.378,10.118-17.041,20.236-.533,18.638-5.325,28.756,91.593,6.923,91.593,6.923,9.586-16.508,6.923-33.549S633.808,67.05,603.987,64.92Z" transform="translate(449.205 66.573)" fill="#2f2e41"/>
    <path id="Caminho_27" data-name="Caminho 27" d="M605.725,139.83s3.358,23.506-11.034,28.783-9.115,12.473-9.115,12.473l21.588,10.554,23.027-7.2,7.676-11.513s-12.473-2.878-9.115-11.513,4.318-11.513,4.318-11.513Z" transform="translate(418.257 35.22)" fill="#ffb9b9"/>
    <path id="Caminho_28" data-name="Caminho 28" d="M605.725,139.83s3.358,23.506-11.034,28.783-9.115,12.473-9.115,12.473l21.588,10.554,23.027-7.2,7.676-11.513s-12.473-2.878-9.115-11.513,4.318-11.513,4.318-11.513Z" transform="translate(418.257 35.22)" opacity="0.1"/>
    <path id="Caminho_29" data-name="Caminho 29" d="M707.244,251.578s-3.358,44.135-2.4,46.054,0,68.6,0,68.6,6.716,35.979-1.919,37.9-6.716-40.3-6.716-40.3l-8.635-55.648.959-55.168Z" transform="translate(377.184 -9.367)" fill="#ffb9b9"/>
    <path id="Caminho_30" data-name="Caminho 30" d="M707.244,251.578s-3.358,44.135-2.4,46.054,0,68.6,0,68.6,6.716,35.979-1.919,37.9-6.716-40.3-6.716-40.3l-8.635-55.648.959-55.168Z" transform="translate(377.184 -9.367)" opacity="0.1"/>
    <path id="Caminho_31" data-name="Caminho 31" d="M554.453,472.681S538.623,532.647,539.1,561.91s6.716,70.04,6.716,70.04.959,17.75-.48,19.669,7.2,10.074,7.2,10.074l9.115-5.277,3.358-3.838v-3.358s-5.277-16.311-.959-29.263,6.716-45.574,2.4-55.648l29.743-88.27Z" transform="translate(436.428 -97.586)" fill="#ffb9b9"/>
    <path id="Caminho_32" data-name="Caminho 32" d="M542.2,770.884s-5.757-7.2-9.595-4.8S522.529,784.8,522.529,784.8s-21.588,20.628-6.236,21.588,22.067-4.318,23.986-8.155,19.669-13.912,19.669-13.912-1.919-18.23-4.8-18.709-7.2,7.2-7.2,7.2Z" transform="translate(447.724 -214.454)" fill="#2f2e41"/>
    <path id="Caminho_33" data-name="Caminho 33" d="M647.2,469.512V529a183.882,183.882,0,0,0,1.439,21.588c1.439,10.554-8.155,89.229-8.155,89.229l.959,13.912,11.993-.959,1.439-11.993L672.143,588s5.756-32.142,2.878-44.135,14.872-88.749,14.872-88.749Z" transform="translate(395.974 -90.579)" fill="#ffb9b9"/>
    <path id="Caminho_34" data-name="Caminho 34" d="M635.014,776.338l3.553-.772s2.683-5.944,6.041-4.5a36.2,36.2,0,0,1,6.677,4l1.478,2.715a57.342,57.342,0,0,0,7.676,11.993c4.318,4.8,9.115,15.351,1.919,16.311s-16.79,1.439-19.669-.959-.959-6.236-3.838-7.2-5.277-3.838-4.8-4.8S635.014,776.338,635.014,776.338Z" transform="translate(398.563 -216.548)" fill="#2f2e41"/>
    <circle id="Elipse_11" data-name="Elipse 11" cx="21.321" cy="21.321" r="21.321" transform="translate(1021.85 148.932)" fill="#ffb9b9"/>
    <path id="Caminho_35" data-name="Caminho 35" d="M584.607,192.639l6.337-2.212s-2.5,4.131,10.933,6.53,27.343,3.248,33.58-4.612c0,0,2.4-1.144,5.757,2.214s5.277,2.4,5.277,2.4l-2.4,12.473-4.8,23.027-6.236,17.27-17.75-3.838-19.189-13.912-7.2-18.709V196Z" transform="translate(418.267 15.032)" fill="#7541eb"/>
    <path id="Caminho_36" data-name="Caminho 36" d="M627.209,200.541l4.8-3.358s16.311,2.878,17.27,10.554L636.8,231.723a27.308,27.308,0,0,1-.48,20.628c-4.8,11.034-4.318,13.432-4.318,13.432l-3.358,14.392-60.925,4.8s-2.4-5.757-3.358-6.716-.96-4.317,0-4.317,0-1.439-.96-2.878-1.439-1.919,0-3.838-2.4-19.189-2.4-19.189V229.324L544.7,207.736s5.757-8.635,8.635-9.595S569.9,193.4,569.9,193.4l3.1,4.562,4.318,34.722,6.236,21.108,26.258-4.462,10.2-17.126,6.716-20.148Z" transform="translate(434.191 13.846)" fill="#7541eb"/>
    <path id="Caminho_37" data-name="Caminho 37" d="M704.349,212.466l3.838,2.878s3.358,26.865,2.4,28.784-17.75,3.838-18.23,2.878S704.349,212.466,704.349,212.466Z" transform="translate(375.281 6.239)" fill="#7541eb"/>
    <path id="Caminho_38" data-name="Caminho 38" d="M572.013,188.843l4.8,31.662s-4.317,47.013-3.358,56.608l.959,2.878s-1.919-.959-2.4.959,0,8.155,0,8.155-2.878,2.878-3.838,18.709-12.473,53.729-8.155,55.168,30.223,8.635,44.135,7.2,63.8-18.23,63.324-22.547-24.466-65.243-24.466-65.243-4.317-7.2-4.317-8.155,5.757-4.8,4.317-8.635-9.115-44.135-9.115-44.135l5.277-28.783-7.2-1.919L626.7,218.585s-20.628,10.074-42.216.959l-4.8-32.621Z" transform="translate(428.462 16.43)" fill="#2f2e41"/>
    <path id="Caminho_39" data-name="Caminho 39" d="M619.02,100.018s35.5,24.466,45.094,13.432-16.79-20.628-16.79-20.628l-22.067-2.4Z" transform="translate(404.537 54.933)" fill="#2f2e41"/>
    <path id="Caminho_40" data-name="Caminho 40" d="M539.049,261.157s3.358,44.135,2.4,46.054,0,68.6,0,68.6-6.716,35.979,1.919,37.9,6.716-40.3,6.716-40.3l8.635-55.648-.959-55.168Z" transform="translate(436.48 -13.189)" fill="#ffb9b9"/>
    <path id="Caminho_41" data-name="Caminho 41" d="M544.815,214.861l-3.838,1.439s-7.2,30.223-5.277,30.223,24.946,2.878,24.946,1.919-4.318-24.466-4.318-24.466Z" transform="translate(437.911 5.283)" fill="#7541eb"/>
  </g>
</svg>
