<svg xmlns="http://www.w3.org/2000/svg" xmlns:xlink="http://www.w3.org/1999/xlink" width="363.713" height="907.281" viewBox="0 0 363.713 907.281">
  <defs>
    <linearGradient id="linear-gradient" x1="0.5" x2="0.5" y2="1" gradientUnits="objectBoundingBox">
      <stop offset="0" stop-color="#fff"/>
      <stop offset="1" stop-color="#f3f3f3"/>
    </linearGradient>
  </defs>
  <path id="Subtração_1" data-name="Subtração 1" d="M2102.717,118.83c-18.988-.674-54.531-6.644-79.239-39.052a107.418,107.418,0,0,1-8.842-13.684,125.252,125.252,0,0,1-7.455-16.509,154.069,154.069,0,0,1-5.732-19.594,197.149,197.149,0,0,1-3.671-22.939,258.715,258.715,0,0,1-1.273-26.546c.013-9.627.5-19.859,1.462-30.413.995-10.97,2.52-22.591,4.534-34.541,2.089-12.4,4.761-25.494,7.943-38.929,2-8.452,3.659-16.708,4.927-24.538,1.243-7.676,2.147-15.17,2.689-22.275.53-6.954.728-13.74.588-20.169a165.3,165.3,0,0,0-1.376-18.22c-2.913-21.794-10.239-40.283-22.4-56.525-22.721-30.353-58.965-48.224-97.338-67.144-17.574-8.665-35.747-17.626-53.081-28.057a291.416,291.416,0,0,1-25.3-16.951,214.073,214.073,0,0,1-23.32-20.216,184.526,184.526,0,0,1-20.476-24.468,182.525,182.525,0,0,1-16.767-29.708,210.16,210.16,0,0,1-12.194-35.936,274.461,274.461,0,0,1-6.757-43.151,192.25,192.25,0,0,1,.111-32.644,169.242,169.242,0,0,1,5.431-29.86,163.592,163.592,0,0,1,10.256-27.2,173.087,173.087,0,0,1,14.587-24.665,196.955,196.955,0,0,1,18.422-22.254,235.019,235.019,0,0,1,21.763-19.966,287.337,287.337,0,0,1,24.609-17.8c8.4-5.446,17.474-10.749,26.96-15.763a476.133,476.133,0,0,1,58.994-25.9c19.325-7.052,40.339-13.523,62.46-19.233a970.09,970.09,0,0,1,119.481-22.423Z" transform="translate(-1739.004 788.452)" fill="url(#linear-gradient)"/>
</svg>
