<svg xmlns="http://www.w3.org/2000/svg" xmlns:xlink="http://www.w3.org/1999/xlink" width="543.851" height="635.26" viewBox="0 0 543.851 635.26">
  <defs>
    <linearGradient id="linear-gradient" x1="0.5" x2="0.5" y2="1" gradientUnits="objectBoundingBox">
      <stop offset="0" stop-color="#fff"/>
      <stop offset="1" stop-color="#f3f3f3"/>
    </linearGradient>
  </defs>
  <path id="Subtração_3" data-name="Subtração 3" d="M1915.493-192.74h-.029a413.73,413.73,0,0,1-44.843-2.16,179.916,179.916,0,0,1-32.291-6.2c-8.6-2.631-15.661-5.94-21-9.836a37.3,37.3,0,0,1-6.656-6.151,28.9,28.9,0,0,1-4.3-6.9,28.8,28.8,0,0,1-2.3-9.4,39.028,39.028,0,0,1,.7-10.354,62.3,62.3,0,0,1,3.41-11.216,102.912,102.912,0,0,1,5.831-11.983,204.2,204.2,0,0,1,17.774-25.891c6.636-8.417,14.487-17.519,24-27.828,19.222-20.824,31.256-41.324,36.789-62.672,5.415-20.887,4.485-42.161-2.842-65.038-13.361-41.71-48.7-89.256-111.218-149.63a146.714,146.714,0,0,1-23.933-29.616,110.4,110.4,0,0,1-12.773-30.445,95.356,95.356,0,0,1-2.553-30.083,95.394,95.394,0,0,1,6.727-28.531,107.123,107.123,0,0,1,19.272-30.819,127.725,127.725,0,0,1,29.872-24.648c24.184-14.572,53.516-22.274,84.826-22.274a214.46,214.46,0,0,1,61.571,9.39,279.272,279.272,0,0,1,66.586,30.527c33.824,20.976,60.687,33.893,82.123,39.488v499.273a198.269,198.269,0,0,1-27.373,9.644,193.427,193.427,0,0,1-28.968,5.51c-23.587,2.64-45.6,4.638-65.434,5.937C1949.135-193.384,1931.312-192.741,1915.493-192.74Zm367.357-631.512h-30.828c2.148-.76,4.341-1.479,6.517-2.139A35.311,35.311,0,0,1,2268.763-828a28.111,28.111,0,0,1,14.084,3.746Z" transform="translate(-1739 828)" opacity="0.55" fill="url(#linear-gradient)"/>
</svg>
